<?xml version="1.0" standalone="no"?>
<!DOCTYPE svg PUBLIC "-//W3C//DTD SVG 20010904//EN"
 "http://www.w3.org/TR/2001/REC-SVG-20010904/DTD/svg10.dtd">
<svg version="1.0" xmlns="http://www.w3.org/2000/svg"
 width="720.000000pt" height="713.000000pt" viewBox="0 0 720.000000 713.000000"
 preserveAspectRatio="xMidYMid meet">

<g transform="translate(0.000000,713.000000) scale(0.100000,-0.100000)"
fill="#000000" stroke="none">
<path d="M3190 5718 c0 -68 -7 -126 -31 -246 -1 -4 -5 9 -8 28 l-7 35 -29 -60
c-28 -56 -33 -60 -67 -63 l-38 -3 88 -71 c48 -39 122 -105 165 -147 l79 -76
-5 110 c-2 61 -7 118 -11 128 -11 23 5 22 32 -3 28 -26 28 -21 -4 119 -25 115
-126 331 -154 331 -6 0 -10 -35 -10 -82z"/>
<path d="M2648 5216 c-21 -7 -66 -32 -100 -54 -77 -50 -128 -72 -168 -72 -16
0 -30 -3 -30 -6 0 -19 67 -85 103 -103 50 -24 78 -28 59 -9 -21 21 -14 23 65
21 74 -3 77 -2 56 13 -23 16 -22 16 44 65 l68 49 95 0 95 0 -30 25 c-47 38
-131 77 -178 81 -23 2 -59 -2 -79 -10z"/>
<path d="M3443 5047 l-30 -32 66 -60 c92 -83 213 -217 271 -300 27 -39 49 -73
50 -77 0 -3 -49 10 -110 30 -60 20 -112 34 -115 30 -3 -3 12 -32 34 -65 49
-74 129 -231 171 -337 34 -86 90 -292 90 -332 0 -13 3 -24 8 -24 11 0 163 58
170 64 17 17 -153 370 -224 467 -25 33 -44 63 -41 65 5 5 157 -96 215 -143 24
-20 45 -33 48 -30 9 9 -120 233 -224 391 -110 165 -227 301 -308 356 l-41 29
-30 -32z"/>
<path d="M2770 4825 c-84 -13 -198 -41 -282 -69 -297 -100 -453 -136 -592
-137 -107 0 -93 -12 38 -30 133 -19 312 6 492 67 277 93 544 79 726 -39 52
-34 136 -113 127 -120 -2 -2 -45 6 -95 18 -50 12 -117 26 -149 30 l-59 7 64
-49 c123 -92 208 -227 245 -387 15 -67 24 -195 18 -258 l-6 -67 -71 65 c-75
69 -180 144 -201 144 -9 0 -9 -21 2 -92 8 -51 13 -119 11 -150 l-4 -58 68 0
c112 0 353 45 541 101 78 23 76 7 19 179 -61 186 -148 344 -246 448 l-50 53
52 -20 c29 -11 80 -35 113 -52 l62 -31 -24 39 c-39 65 -111 156 -171 214 -108
107 -222 167 -364 195 -90 17 -150 17 -264 -1z"/>
<path d="M2421 4204 c0 -11 3 -14 6 -6 3 7 2 16 -1 19 -3 4 -6 -2 -5 -13z"/>
<path d="M2401 4081 c-16 -122 -9 -245 19 -356 68 -265 289 -430 605 -452 130
-8 135 -20 12 -28 -124 -9 -233 0 -332 25 l-70 19 35 -30 c81 -69 211 -109
358 -109 109 0 234 18 455 65 292 62 342 69 512 69 124 0 174 -4 224 -17 83
-24 183 -74 250 -127 65 -51 54 -23 -22 58 -99 104 -242 166 -410 178 l-96 7
31 61 c19 39 59 90 109 139 42 43 70 76 61 73 -9 -3 -28 -7 -42 -10 -14 -3
-81 -19 -150 -35 -196 -46 -373 -81 -483 -95 -91 -12 -96 -14 -47 -15 30 -2
75 -6 100 -10 l45 -7 -75 -12 c-236 -40 -490 -41 -630 -3 -285 77 -422 260
-439 586 l-7 130 -13 -104z"/>
<path d="M4200 3472 c-21 -7 -16 -9 30 -14 64 -8 176 -52 263 -105 77 -47 196
-159 253 -239 127 -178 201 -442 192 -683 -3 -82 -3 -83 -18 -55 -78 154 -224
311 -342 368 -41 20 -77 36 -80 36 -3 0 23 -29 57 -64 98 -100 170 -239 195
-376 14 -77 18 -226 7 -292 -5 -27 -4 -48 1 -48 17 0 148 84 217 139 261 208
379 465 345 756 -13 115 -33 187 -85 310 l-17 40 22 -20 c61 -55 124 -211 173
-430 12 -53 5 112 -8 195 -40 249 -135 401 -289 465 l-38 16 20 -33 c50 -81
93 -312 91 -492 l0 -101 -23 80 c-24 90 -61 174 -100 232 -97 142 -268 248
-475 294 -93 20 -349 34 -391 21z"/>
<path d="M3050 1760 c-22 -22 -18 -45 11 -61 22 -11 53 2 63 26 6 16 -25 55
-44 55 -5 0 -19 -9 -30 -20z"/>
<path d="M1260 1519 l0 -220 38 3 c41 3 39 -1 41 106 l1 62 100 0 100 0 0 30
0 30 -100 0 -100 0 0 75 0 75 115 0 115 0 0 30 0 30 -155 0 -155 0 0 -221z"/>
<path d="M4370 1521 l0 -221 35 0 35 0 0 141 c0 86 4 138 10 134 5 -3 39 -55
75 -115 37 -61 73 -110 80 -110 8 0 47 55 87 122 l73 122 3 -147 3 -147 34 0
35 0 0 221 0 220 -31 -3 c-29 -3 -38 -14 -113 -145 -44 -78 -85 -141 -90 -140
-4 2 -45 66 -90 142 -76 129 -85 140 -114 143 l-32 3 0 -220z"/>
<path d="M5748 1675 c4 -33 3 -35 -27 -35 -28 0 -31 -3 -31 -30 0 -25 4 -30
24 -30 32 0 36 -15 36 -121 0 -50 5 -99 11 -111 15 -29 73 -50 115 -42 40 7
48 16 39 45 -5 16 -12 19 -31 15 -13 -4 -33 -2 -44 4 -18 10 -20 21 -20 110
l0 100 40 0 c38 0 40 2 40 30 0 28 -2 30 -40 30 -37 0 -40 2 -41 28 -1 15 -1
30 0 35 0 4 -16 7 -37 7 -38 0 -38 0 -34 -35z"/>
<path d="M1741 1630 c-80 -19 -124 -82 -119 -171 5 -66 31 -109 85 -135 50
-24 139 -23 181 2 36 21 39 30 17 54 -15 16 -18 16 -55 -2 -50 -25 -97 -18
-134 19 -48 48 -39 53 104 53 l130 0 0 28 c0 42 -41 114 -75 133 -39 22 -91
29 -134 19z m117 -85 c12 -14 22 -30 22 -36 0 -5 -42 -9 -95 -9 -72 0 -95 3
-95 13 0 15 36 51 60 60 30 12 85 -2 108 -28z"/>
<path d="M2030 1470 l0 -170 35 0 35 0 0 78 c1 138 26 192 91 192 26 0 29 3
29 35 0 34 -1 34 -32 28 -18 -3 -45 -15 -60 -25 l-28 -19 0 25 c0 23 -4 26
-35 26 l-35 0 0 -170z"/>
<path d="M2381 1630 c-79 -19 -124 -84 -119 -171 7 -99 66 -152 170 -152 100
0 168 66 168 163 0 112 -104 188 -219 160z m122 -90 c75 -83 -15 -213 -116
-165 -58 27 -76 108 -36 159 43 54 105 57 152 6z"/>
<path d="M2784 1631 c-138 -34 -170 -220 -52 -299 68 -45 189 -30 225 28 9 14
6 20 -18 34 -18 10 -29 13 -29 6 0 -18 -69 -42 -101 -35 -16 4 -40 20 -54 37
-57 67 -12 173 74 173 29 0 47 -7 63 -22 20 -20 23 -21 51 -7 l29 16 -23 25
c-13 14 -31 28 -39 33 -25 13 -93 19 -126 11z"/>
<path d="M3040 1470 l0 -170 35 0 35 0 0 170 0 170 -35 0 -35 0 0 -170z"/>
<path d="M3321 1630 c-79 -19 -124 -84 -119 -171 7 -99 66 -152 170 -152 107
0 175 73 166 178 -5 58 -34 107 -76 129 -37 19 -100 26 -141 16z m122 -90 c75
-83 -15 -213 -116 -165 -58 27 -76 108 -36 159 43 54 105 57 152 6z"/>
<path d="M3620 1528 c0 -125 12 -165 62 -202 35 -25 115 -27 151 -3 33 22 37
21 37 -3 0 -16 7 -20 35 -20 l35 0 0 170 0 170 -35 0 -35 0 0 -95 c0 -124 -14
-159 -69 -176 -34 -10 -44 -9 -66 5 -37 24 -45 54 -45 167 l0 99 -35 0 -35 0
0 -112z"/>
<path d="M4103 1629 c-51 -12 -83 -49 -83 -95 0 -47 27 -70 97 -84 81 -15 103
-26 103 -50 0 -40 -88 -48 -171 -15 -10 4 -19 -2 -27 -19 -11 -24 -9 -27 21
-42 44 -23 152 -23 195 0 33 17 52 49 52 87 0 30 -41 65 -86 73 -96 17 -114
26 -114 52 0 41 57 53 146 28 15 -4 23 1 31 19 11 23 9 26 -15 35 -43 17 -104
21 -149 11z"/>
<path d="M5051 1630 c-80 -19 -124 -82 -119 -171 5 -66 31 -109 85 -135 50
-24 139 -23 181 2 36 21 39 30 17 54 -15 16 -18 16 -54 -2 -49 -24 -100 -17
-136 19 -47 48 -38 53 105 53 l130 0 0 28 c0 42 -41 114 -75 133 -39 22 -91
29 -134 19z m117 -85 c12 -14 22 -30 22 -36 0 -5 -42 -9 -95 -9 -72 0 -95 3
-95 13 0 15 36 51 60 60 30 12 85 -2 108 -28z"/>
<path d="M5427 1626 c-78 -28 -113 -88 -105 -176 9 -91 76 -144 179 -144 36 1
67 7 87 20 36 21 39 30 17 54 -15 16 -18 16 -54 -2 -41 -20 -91 -18 -122 5
-15 11 -39 49 -39 61 0 3 59 6 130 6 l130 0 0 28 c0 41 -41 114 -75 133 -44
25 -104 31 -148 15z m131 -81 c12 -14 22 -30 22 -36 0 -5 -42 -9 -95 -9 -72 0
-95 3 -95 13 0 15 36 51 60 60 30 12 85 -2 108 -28z"/>
</g>
</svg>
